<svg width="32.998" height="32.998" xmlns="http://www.w3.org/2000/svg">

 <g>
  <title>background</title>
  <rect fill="none" id="canvas_background" height="402" width="582" y="-1" x="-1"/>
 </g>
 <g>
  <title>Layer 1</title>
  <g id="svg_1">
   <path stroke="#ffffff" id="svg_2" d="m12.165,26.384c-0.132,0 -0.263,-0.052 -0.36,-0.153l-7.298,-7.565c-0.09,-0.093 -0.14,-0.218 -0.14,-0.347l0,-2.559c0,-0.6 0.36,-1.127 0.918,-1.343c6.138,-2.375 20.57,-7.9 22.009,-7.9c1.712,0 3.328,0.782 4.433,2.146c1.085,1.338 1.503,3.073 1.146,4.757c-0.473,2.236 -2.294,4.011 -4.531,4.415c-1.284,0.233 -2.589,0.028 -3.721,-0.574l-6.427,8.317c-0.399,0.516 -1.104,0.692 -1.712,0.428c-0.842,-0.367 -2.483,-0.818 -4.027,0.285c-0.087,0.063 -0.189,0.093 -0.29,0.093zm-6.798,-8.266l6.871,7.123c1.832,-1.085 3.674,-0.574 4.645,-0.15c0.189,0.081 0.402,0.032 0.521,-0.123l6.696,-8.665c0.157,-0.205 0.446,-0.256 0.665,-0.115c1.02,0.652 2.193,0.883 3.401,0.664c1.841,-0.333 3.341,-1.794 3.73,-3.638c0.298,-1.409 -0.038,-2.801 -0.945,-3.92c-0.901,-1.112 -2.268,-1.775 -3.656,-1.775c-0.861,0.007 -9.561,3.155 -21.648,7.833c-0.17,0.065 -0.279,0.227 -0.279,0.41l0,2.356l-0.001,0z"/>
   <g id="svg_3">
    <path stroke="#ffffff" id="svg_4" d="m7.034,12.183c-0.261,0 -0.521,-0.057 -0.766,-0.169c-0.445,-0.205 -0.784,-0.57 -0.954,-1.03c-0.351,-0.949 0.136,-2.006 1.084,-2.358l0.802,-0.296c0.947,-0.354 2.006,0.135 2.357,1.083c0.351,0.949 -0.135,2.006 -1.083,2.358l0,0l-0.801,0.296c-0.209,0.078 -0.424,0.116 -0.639,0.116zm0.801,-2.968c-0.096,0 -0.194,0.017 -0.289,0.052l-0.801,0.297c-0.431,0.16 -0.653,0.642 -0.493,1.073c0.16,0.432 0.642,0.652 1.073,0.493l0.801,-0.296c0.432,-0.16 0.653,-0.642 0.494,-1.073c-0.125,-0.337 -0.445,-0.546 -0.785,-0.546z"/>
   </g>
   <g id="svg_5">
    <path stroke="#ffffff" id="svg_6" d="m12.042,10.329c-0.261,0 -0.521,-0.057 -0.766,-0.169c-0.445,-0.205 -0.784,-0.57 -0.954,-1.03c-0.17,-0.459 -0.152,-0.958 0.053,-1.403c0.205,-0.445 0.57,-0.784 1.03,-0.954l0.801,-0.297c0.461,-0.17 0.959,-0.151 1.404,0.054c0.445,0.205 0.784,0.57 0.954,1.03c0.352,0.949 -0.135,2.006 -1.083,2.357l-0.801,0.297c-0.207,0.077 -0.423,0.115 -0.638,0.115zm0.801,-2.968c-0.096,0 -0.194,0.017 -0.289,0.052l-0.801,0.297c-0.209,0.078 -0.376,0.232 -0.469,0.435c-0.093,0.202 -0.102,0.429 -0.024,0.638c0.16,0.433 0.644,0.654 1.073,0.494l0.801,-0.297c0,0 0,0 0,0c0.209,-0.078 0.375,-0.232 0.468,-0.434c0.093,-0.203 0.102,-0.43 0.024,-0.639c-0.124,-0.337 -0.443,-0.546 -0.783,-0.546z"/>
   </g>
   <g id="svg_7">
    <path stroke="#ffffff" id="svg_8" d="m17.049,8.475c-0.261,0 -0.521,-0.057 -0.766,-0.169c-0.445,-0.205 -0.784,-0.57 -0.954,-1.03c-0.17,-0.459 -0.151,-0.958 0.054,-1.403c0.205,-0.445 0.57,-0.784 1.03,-0.954l0.801,-0.296c0.459,-0.171 0.958,-0.152 1.403,0.053c0.445,0.205 0.784,0.57 0.954,1.03c0.17,0.459 0.151,0.958 -0.054,1.403c-0.205,0.445 -0.57,0.784 -1.03,0.954l-0.799,0.297c-0.208,0.077 -0.424,0.115 -0.639,0.115zm0.804,-2.968c-0.098,0 -0.196,0.017 -0.291,0.052l-0.802,0.297c-0.209,0.078 -0.375,0.232 -0.469,0.435c-0.093,0.203 -0.102,0.429 -0.024,0.639c0.078,0.209 0.232,0.375 0.435,0.469c0.202,0.093 0.429,0.102 0.639,0.024l0.801,-0.297c0,0 0,0 0,0c0.209,-0.078 0.375,-0.232 0.469,-0.435c0.093,-0.203 0.102,-0.429 0.024,-0.639c-0.078,-0.209 -0.232,-0.375 -0.435,-0.468c-0.111,-0.051 -0.229,-0.077 -0.347,-0.077z"/>
   </g>
   <g id="svg_9">
    <path stroke="#ffffff" id="svg_10" d="m22.057,6.621c-0.261,0 -0.521,-0.056 -0.765,-0.168c-0.446,-0.205 -0.785,-0.57 -0.955,-1.03c-0.351,-0.948 0.135,-2.006 1.083,-2.358l0.801,-0.296c0.946,-0.352 2.006,0.135 2.357,1.084c0.17,0.459 0.152,0.958 -0.053,1.403c-0.205,0.445 -0.57,0.784 -1.03,0.954l0,0l-0.801,0.296c-0.207,0.077 -0.422,0.115 -0.637,0.115zm0.802,-2.968c-0.098,0 -0.196,0.018 -0.291,0.052l-0.801,0.296c-0.432,0.16 -0.653,0.642 -0.493,1.074c0.078,0.209 0.232,0.375 0.434,0.468c0.203,0.093 0.429,0.103 0.639,0.024l0.801,-0.296c0.209,-0.078 0.375,-0.232 0.468,-0.435c0.093,-0.202 0.102,-0.429 0.024,-0.638c-0.076,-0.208 -0.23,-0.375 -0.432,-0.468c-0.111,-0.051 -0.23,-0.077 -0.349,-0.077z"/>
   </g>
   <g id="svg_11">
    <path stroke="#ffffff" id="svg_12" d="m0.5,22.921c-0.136,0 -0.272,-0.056 -0.371,-0.165c-0.185,-0.205 -0.169,-0.521 0.036,-0.707l4.429,-4.003c0.205,-0.185 0.521,-0.169 0.707,0.036c0.185,0.205 0.169,0.521 -0.036,0.707l-4.429,4.003c-0.096,0.087 -0.216,0.129 -0.336,0.129z"/>
    <path stroke="#ffffff" id="svg_13" d="m2.905,25.396c-0.136,0 -0.272,-0.056 -0.371,-0.165c-0.185,-0.205 -0.169,-0.521 0.036,-0.707l4.429,-4.004c0.204,-0.185 0.521,-0.169 0.707,0.036c0.185,0.205 0.169,0.521 -0.036,0.707l-4.43,4.004c-0.095,0.086 -0.216,0.129 -0.335,0.129z"/>
    <path stroke="#ffffff" id="svg_14" d="m5.31,27.87c-0.136,0 -0.272,-0.056 -0.371,-0.165c-0.185,-0.205 -0.169,-0.521 0.036,-0.707l4.428,-4.004c0.205,-0.185 0.521,-0.169 0.707,0.036c0.185,0.205 0.169,0.521 -0.036,0.707l-4.428,4.004c-0.096,0.087 -0.216,0.129 -0.336,0.129z"/>
    <path stroke="#ffffff" id="svg_15" d="m7.715,30.344c-0.136,0 -0.272,-0.056 -0.371,-0.165c-0.185,-0.205 -0.169,-0.521 0.036,-0.707l4.428,-4.003c0.205,-0.185 0.521,-0.169 0.707,0.036c0.185,0.205 0.169,0.521 -0.036,0.707l-4.429,4.003c-0.095,0.087 -0.215,0.129 -0.335,0.129z"/>
   </g>
  </g>
  <g id="svg_16"/>
  <g id="svg_17"/>
  <g id="svg_18"/>
  <g id="svg_19"/>
  <g id="svg_20"/>
  <g id="svg_21"/>
  <g id="svg_22"/>
  <g id="svg_23"/>
  <g id="svg_24"/>
  <g id="svg_25"/>
  <g id="svg_26"/>
  <g id="svg_27"/>
  <g id="svg_28"/>
  <g id="svg_29"/>
  <g id="svg_30"/>
 </g>
</svg>